<svg width="38" height="38" viewBox="0 0 38 38" fill="none" xmlns="http://www.w3.org/2000/svg">
<path fill-rule="evenodd" clip-rule="evenodd" d="M31.6667 24.0666V8.86664C31.6667 7.47331 30.5267 6.33331 29.1334 6.33331H13.9334C12.54 6.33331 11.4 7.47331 11.4 8.86664V24.0666C11.4 25.46 12.54 26.6 13.9334 26.6H29.1334C30.5267 26.6 31.6667 25.46 31.6667 24.0666ZM18.24 19.6716L20.3047 22.4329L23.5727 18.3542C23.826 18.0376 24.3073 18.0376 24.5607 18.3542L28.31 23.0409C28.6393 23.4589 28.348 24.0669 27.816 24.0669H15.2C14.6807 24.0669 14.3767 23.4716 14.6933 23.0536L17.2267 19.6716C17.48 19.3422 17.9867 19.3422 18.24 19.6716ZM6.33325 12.667V29.1337C6.33325 30.527 7.47325 31.667 8.86658 31.667H25.3332C26.0299 31.667 26.5999 31.097 26.5999 30.4003C26.5999 29.7037 26.0299 29.1337 25.3332 29.1337H10.1332C9.43658 29.1337 8.86658 28.5637 8.86658 27.867V12.667C8.86658 11.9704 8.29658 11.4004 7.59992 11.4004C6.90325 11.4004 6.33325 11.9704 6.33325 12.667Z" fill="#19C070"/>
</svg>
