<svg width="38" height="38" viewBox="0 0 38 38" fill="none" xmlns="http://www.w3.org/2000/svg">
<path fill-rule="evenodd" clip-rule="evenodd" d="M25.3333 29.1334H10.1333C9.43659 29.1334 8.86659 28.5634 8.86659 27.8667V12.6667C8.86659 11.97 8.29659 11.4 7.59992 11.4C6.90325 11.4 6.33325 11.97 6.33325 12.6667V29.1334C6.33325 30.5267 7.47325 31.6667 8.86659 31.6667H25.3333C26.0299 31.6667 26.5999 31.0967 26.5999 30.4C26.5999 29.7034 26.0299 29.1334 25.3333 29.1334ZM29.1336 6.33344H13.9336C12.5402 6.33344 11.4002 7.47344 11.4002 8.86677V24.0668C11.4002 25.4601 12.5402 26.6001 13.9336 26.6001H29.1336C30.5269 26.6001 31.6669 25.4601 31.6669 24.0668V8.86677C31.6669 7.47344 30.5269 6.33344 29.1336 6.33344ZM29.1331 19.0003L25.9664 17.1003L22.7998 19.0003V8.86692H29.1331V19.0003Z" fill="#FF6C01"/>
</svg>
