<svg width="38" height="38" viewBox="0 0 38 38" fill="none" xmlns="http://www.w3.org/2000/svg">
<path fill-rule="evenodd" clip-rule="evenodd" d="M32.1444 6H6.81444C5.2665 6 4 7.2665 4 8.81444V28.5156C4 30.0635 5.2665 31.33 6.81444 31.33H32.1444C33.6924 31.33 34.9589 30.0635 34.9589 28.5156V8.81444C34.9589 7.2665 33.6924 6 32.1444 6ZM18.0716 18.6649H8.22105C7.44708 18.6649 6.81383 18.0317 6.81383 17.2577V10.2216C6.81383 9.4476 7.44708 8.81435 8.22105 8.81435H18.0716C18.8456 8.81435 19.4788 9.4476 19.4788 10.2216V17.2577C19.4788 18.0317 18.8456 18.6649 18.0716 18.6649Z" fill="#15BABE"/>
</svg>
