<svg width="38" height="38" viewBox="0 0 38 38" fill="none" xmlns="http://www.w3.org/2000/svg">
<path fill-rule="evenodd" clip-rule="evenodd" d="M31.6668 6.33331H6.33342C4.59175 6.33331 3.16675 7.75831 3.16675 9.49998V28.5C3.16675 30.2416 4.59175 31.6666 6.33342 31.6666H31.6668C33.4084 31.6666 34.8334 30.2416 34.8334 28.5V9.49998C34.8334 7.75831 33.4084 6.33331 31.6668 6.33331ZM31.0334 13.0625L20.6784 19.5383C19.6492 20.1875 18.3509 20.1875 17.3217 19.5383L6.96675 13.0625C6.57091 12.8092 6.33341 12.3817 6.33341 11.9225C6.33341 10.8617 7.48925 10.2283 8.39175 10.7825L19.0001 17.4166L29.6084 10.7825C30.5109 10.2283 31.6667 10.8617 31.6667 11.9225C31.6667 12.3817 31.4292 12.8092 31.0334 13.0625Z" fill="#D85059"/>
</svg>
