<svg width="24" height="24" viewBox="0 0 24 24" fill="none" xmlns="http://www.w3.org/2000/svg">
<path fill-rule="evenodd" clip-rule="evenodd" d="M16.3478 5.45889C16.0522 5.16333 15.6556 5 15.2433 5H6.55556C5.69222 5 5 5.7 5 6.55556V17.4444C5 18.3 5.7 19 6.55556 19H17.4444C18.3 19 19 18.3 19 17.4444V8.75667C19 8.34444 18.8367 7.94778 18.5411 7.66L16.3478 5.45889ZM12 17.4444C10.7089 17.4444 9.66667 16.4022 9.66667 15.1111C9.66667 13.82 10.7089 12.7778 12 12.7778C13.2911 12.7778 14.3333 13.82 14.3333 15.1111C14.3333 16.4022 13.2911 17.4444 12 17.4444ZM12.7778 9.66667H8.11111C7.25556 9.66667 6.55556 8.96667 6.55556 8.11111C6.55556 7.25556 7.25556 6.55556 8.11111 6.55556H12.7778C13.6333 6.55556 14.3333 7.25556 14.3333 8.11111C14.3333 8.96667 13.6333 9.66667 12.7778 9.66667Z" fill="white"/>
</svg>
