<svg width="24" height="24" viewBox="0 0 24 24" fill="none" xmlns="http://www.w3.org/2000/svg">
<path fill-rule="evenodd" clip-rule="evenodd" d="M17.0327 12C17.0618 12.24 17.0909 12.48 17.0909 12.7273C17.0909 14.24 16.5091 15.6145 15.5636 16.6473C15.3745 16.0582 14.8364 15.6364 14.1818 15.6364H13.4545V13.4545C13.4545 13.0545 13.1273 12.7273 12.7273 12.7273H8.36364V11.2727H9.81818C10.2182 11.2727 10.5455 10.9455 10.5455 10.5455V9.09091H12C12.8 9.09091 13.4545 8.43636 13.4545 7.63636V5.78909C12.7636 5.57091 12.0364 5.45455 11.2727 5.45455C7.25818 5.45455 4 8.71273 4 12.7273C4 16.7418 7.25818 20 11.2727 20C15.2873 20 18.5455 16.7418 18.5455 12.7273C18.5455 12.48 18.5309 12.24 18.5091 12H17.0327ZM10.5455 18.4945C7.67273 18.1382 5.45455 15.6945 5.45455 12.7272C5.45455 12.2763 5.51273 11.8472 5.60727 11.4254L9.09091 14.9091V15.6363C9.09091 16.4363 9.74545 17.0909 10.5455 17.0909V18.4945ZM19.2727 6.18182V5.81818C19.2727 4.81455 18.4582 4 17.4545 4C16.4509 4 15.6364 4.81455 15.6364 5.81818V6.18182C15.2364 6.18182 14.9091 6.50909 14.9091 6.90909V9.81818C14.9091 10.2182 15.2364 10.5455 15.6364 10.5455H19.2727C19.6727 10.5455 20 10.2182 20 9.81818V6.90909C20 6.50909 19.6727 6.18182 19.2727 6.18182ZM18.5455 6.18182H16.3636V5.81818C16.3636 5.21455 16.8509 4.72727 17.4545 4.72727C18.0582 4.72727 18.5455 5.21455 18.5455 5.81818V6.18182Z" fill="#F1F1F2"/>
</svg>
