<svg width="24" height="24" viewBox="0 0 24 24" fill="none" xmlns="http://www.w3.org/2000/svg">
<path fill-rule="evenodd" clip-rule="evenodd" d="M7.3939 17.9393C7.3939 18.8726 8.15754 19.6362 9.09087 19.6362H15.8787C16.8121 19.6362 17.5757 18.8726 17.5757 17.9393V9.45444C17.5757 8.52111 16.8121 7.75747 15.8787 7.75747H9.09087C8.15754 7.75747 7.3939 8.52111 7.3939 9.45444V17.9393ZM17.5757 5.21212H15.4545L14.8521 4.6097C14.6993 4.45697 14.4787 4.36364 14.2581 4.36364H10.7115C10.4909 4.36364 10.2703 4.45697 10.1175 4.6097L9.5151 5.21212H7.39389C6.92723 5.21212 6.54541 5.59394 6.54541 6.0606C6.54541 6.52727 6.92723 6.90909 7.39389 6.90909H17.5757C18.0424 6.90909 18.4242 6.52727 18.4242 6.0606C18.4242 5.59394 18.0424 5.21212 17.5757 5.21212Z" fill="white"/>
</svg>
