<svg width="24" height="24" viewBox="0 0 24 24" fill="none" xmlns="http://www.w3.org/2000/svg">
<path fill-rule="evenodd" clip-rule="evenodd" d="M13.5582 4H10.4469C10.0192 4 9.66914 4.35001 9.66914 4.77781C9.66914 5.2056 10.0192 5.55562 10.4469 5.55562H13.5582C13.986 5.55562 14.336 5.2056 14.336 4.77781C14.336 4.35001 13.986 4 13.5582 4ZM12.0026 14.1115C12.4304 14.1115 12.7804 13.7615 12.7804 13.3337V10.2225C12.7804 9.79468 12.4304 9.44467 12.0026 9.44467C11.5748 9.44467 11.2248 9.79468 11.2248 10.2225V13.3337C11.2248 13.7615 11.5748 14.1115 12.0026 14.1115ZM17.4706 8.9702L18.054 8.38685C18.3496 8.09128 18.3573 7.60126 18.054 7.29791L18.0462 7.29013C17.7429 6.98679 17.2606 6.99457 16.9573 7.29013L16.3739 7.87349C15.1683 6.90901 13.6516 6.33343 12.0026 6.33343C8.26916 6.33343 5.09569 9.41355 5.00236 13.147C4.90124 17.0983 8.06693 20.334 12.0026 20.334C15.8761 20.334 19.0029 17.1994 19.0029 13.3337C19.0029 11.6848 18.4273 10.168 17.4706 8.9702ZM12.0026 18.7784C8.99244 18.7784 6.5579 16.3438 6.5579 13.3337C6.5579 10.3236 8.99244 7.88905 12.0026 7.88905C15.0127 7.88905 17.4472 10.3236 17.4472 13.3337C17.4472 16.3438 15.0127 18.7784 12.0026 18.7784Z" fill="white"/>
</svg>
