<svg width="236" height="51" viewBox="0 0 236 51" fill="none" xmlns="http://www.w3.org/2000/svg">
<path d="M2.70806 50.8972H9.95537C11.0374 50.8972 12.0162 50.2516 12.443 49.2582L16.6229 39.5303H41.5597L45.795 49.27C46.2252 50.2592 47.1999 50.8986 48.2785 50.8986H55.8382C56.7554 50.8986 57.6102 50.4345 58.109 49.6656C58.6084 48.896 58.6853 47.9268 58.3119 47.0893L38.0635 1.60969C37.6292 0.632247 36.6593 0.00325012 35.5905 0.00325012H22.606C21.5295 0.00325012 20.5562 0.639863 20.1246 1.62561L0.226706 47.1052C-0.139054 47.9414 -0.0586974 48.9077 0.442145 49.6718C0.941601 50.4359 1.79435 50.8972 2.70806 50.8972ZM28.7899 10.7419L36.5513 28.5353H21.3327L28.7899 10.7419Z" fill="white"/>
<path d="M61.8771 50.8954H68.9616C70.4572 50.8954 71.6695 49.6831 71.6695 48.1875V13.1043L87.6493 49.2814C88.0823 50.2623 89.0528 50.8954 90.1258 50.8954H97.989C99.0461 50.8954 100.007 50.2796 100.45 49.3195L116.81 13.7513V48.1875C116.81 49.6831 118.022 50.8954 119.517 50.8954H126.6C128.095 50.8954 129.307 49.6831 129.307 48.1875V2.70787C129.307 1.21227 128.095 0 126.6 0H111.131C110.065 0 109.098 0.625533 108.662 1.59743L94.0432 34.1286L79.4703 1.60228C79.0339 0.628307 78.0668 0.00138469 76.9994 0.00138469H61.8778C60.3822 0.00138469 59.1699 1.21366 59.1699 2.70926V48.1868C59.1692 49.6831 60.3815 50.8954 61.8771 50.8954Z" fill="white"/>
<path d="M148.372 50.8954H192.087C192.859 50.8954 193.594 50.565 194.108 49.99L208.303 34.0718L222.135 50.0634C222.649 50.6585 223.396 51 224.183 51H232.936C233.991 51 234.951 50.3869 235.394 49.4289C235.838 48.4708 235.684 47.3431 235.001 46.5388L216.61 24.8849L234.9 4.63297C235.617 3.8391 235.799 2.69609 235.364 1.71796C234.93 0.73983 233.962 0.109454 232.891 0.109454H224.284C223.519 0.109454 222.792 0.432258 222.277 0.998217L208.767 15.8939L195.724 0.928253C195.209 0.338049 194.465 0 193.682 0H148.372C146.875 0 145.663 1.21227 145.663 2.70787V48.1875C145.662 49.6831 146.875 50.8954 148.372 50.8954ZM157.967 30.1572H182.811C184.306 30.1572 185.518 28.9449 185.518 27.4486V23.2029C185.518 21.7073 184.306 20.495 182.811 20.495H157.967V10.9589L188.361 11.004L200.522 24.8862L186.772 40.217H157.967V30.1572Z" fill="white"/>
</svg>
