<svg width="188" height="33" viewBox="0 0 188 33" fill="none" xmlns="http://www.w3.org/2000/svg">
<path fill-rule="evenodd" clip-rule="evenodd" d="M0.833984 1.133H8.96898C10.486 1.133 12.002 1.271 13.38 1.478C20.549 2.512 26.202 6.304 26.202 16.368C26.202 26.364 20.549 30.223 13.38 31.188C12.002 31.395 10.485 31.463 8.96898 31.463H0.833984V1.133V1.133ZM185.303 5.751C186.405 5.751 187.233 4.924 187.233 3.683C187.233 2.443 186.405 1.546 185.303 1.546C184.199 1.546 183.371 2.442 183.371 3.683C183.371 4.924 184.199 5.751 185.303 5.751ZM185.303 1.064C185.647 1.06387 185.988 1.13152 186.305 1.26309C186.623 1.39466 186.912 1.58757 187.155 1.8308C187.398 2.07402 187.591 2.36279 187.723 2.6806C187.854 2.99841 187.922 3.33903 187.922 3.683C187.922 4.02706 187.855 4.36779 187.723 4.68571C187.592 5.00364 187.399 5.29253 187.156 5.53585C186.912 5.77918 186.623 5.97218 186.306 6.10382C185.988 6.23545 185.647 6.30313 185.303 6.303C184.608 6.303 183.942 6.02702 183.451 5.53577C182.959 5.04452 182.683 4.37824 182.683 3.6835C182.683 2.98877 182.959 2.32249 183.451 1.83124C183.942 1.33998 184.608 1.064 185.303 1.064ZM185.303 4.097L185.164 3.89H184.82V5.131H184.267V2.167H185.439C186.128 2.167 186.543 2.443 186.543 3.063C186.543 3.545 186.197 3.821 185.715 3.89L186.543 5.131H185.922L185.303 4.097V4.097ZM185.303 2.581H185.371C185.646 2.581 185.922 2.65 185.922 2.995C185.922 3.409 185.647 3.477 185.371 3.477H184.821V2.581H185.303V2.581ZM166.139 14.023C168.414 13.747 170.274 12.782 170.274 9.887C170.274 7.13 168.415 6.371 166.139 6.027H162.002V14.162H163.932C164.691 14.162 165.449 14.092 166.139 14.023ZM166.139 1.202C171.516 1.409 176.479 2.512 176.479 9.405C176.479 12.99 174.204 15.954 170.413 16.436C171.999 16.643 172.964 18.229 173.515 19.608L178.273 31.463H171.654L168.07 21.951C167.519 20.572 167.037 19.744 166.14 19.262C165.658 18.987 164.9 18.848 163.933 18.848H162.003V31.463H156.075V1.133H162.485C163.656 1.133 164.967 1.133 166.139 1.202V1.202ZM110.922 10.232C111.611 12.024 111.955 14.024 111.955 16.299C111.955 18.436 111.611 20.504 110.922 22.365C108.785 28.222 103.615 32.015 96.516 32.015C87.003 32.015 80.936 25.535 80.936 16.298C80.936 6.991 87.14 0.650002 96.516 0.650002C103.615 0.650002 108.785 4.373 110.922 10.232V10.232ZM110.922 3.821L121.401 31.463H123.606L135.256 1.133H129.051L122.848 17.125L116.231 1.133H109.889L110.922 3.821V3.821ZM136.773 1.133H154.419V6.027H142.769V13.472H153.384V18.158H142.77V26.707H154.489V31.463H136.774V1.133H136.773V1.133ZM13.38 6.51C12.346 6.165 11.243 6.027 10.141 6.027H6.76298V26.707H10.141C11.244 26.707 12.347 26.5 13.38 26.156C17.034 24.845 19.998 21.468 19.998 16.367C19.999 11.266 17.034 7.75 13.38 6.51V6.51ZM28.546 1.133H34.543V31.463H28.546V1.133V1.133ZM53.776 9.198C51.708 7.888 49.503 6.578 47.159 6.303C45.022 6.027 42.747 6.647 42.747 9.68C42.747 14.919 55.845 12.713 55.845 22.847C55.845 29.464 50.606 32.704 44.609 32.015C41.369 31.669 39.508 30.704 36.957 28.982V22.777C38.957 23.881 41.92 26.017 44.264 26.431C46.815 26.845 49.572 26.085 49.572 23.329C49.572 17.47 36.544 19.882 36.544 9.886C36.544 3.131 41.645 0.649002 46.884 0.649002C49.504 0.649002 51.778 1.614 53.777 3.406V9.198H53.776V9.198ZM79.419 28.43C77.902 30.362 74.318 31.463 71.905 31.67C62.599 32.291 56.395 27.121 56.395 16.85C56.395 6.51 61.841 0.444002 71.905 0.996002C73.904 1.065 77.144 1.754 79.281 3.546V9.337C76.73 7.752 74.111 6.649 71.905 6.58C65.77 6.373 62.599 10.233 62.599 16.437C62.599 22.642 65.563 26.087 71.905 25.812C74.386 25.744 78.109 23.744 79.419 22.642V28.43V28.43Z" fill="white"/>
</svg>
