<svg width="45" height="14" viewBox="0 0 45 14" fill="none" xmlns="http://www.w3.org/2000/svg">
<path fill-rule="evenodd" clip-rule="evenodd" d="M21.8055 0.244149L18.8432 13.8347H15.305L18.2672 0.244149H21.8055ZM36.7813 9.03325L38.6738 3.90627L39.7435 9.03325H36.7813ZM40.731 13.8347H44.0223L41.1424 0.244149H38.0978C37.4396 0.244149 36.8636 0.651049 36.6167 1.22071L31.2682 13.8347H34.971L35.7116 11.8002H40.3195L40.731 13.8347ZM31.4328 9.44014C31.4328 5.85939 26.4134 5.61526 26.4134 4.06903C26.4134 3.58074 26.9071 3.09247 27.8945 2.9297C28.3882 2.84832 29.7871 2.84831 31.4328 3.49936L32.091 0.56967C31.2682 0.325527 30.1162 0 28.7997 0C25.2614 0 22.7929 1.87176 22.7929 4.47594C22.7929 6.42907 24.5208 7.48701 25.9197 8.13805C27.3185 8.7891 27.73 9.196 27.73 9.84705C27.73 10.7422 26.6603 11.1491 25.5905 11.1491C23.7803 11.1491 22.7929 10.6608 21.97 10.2539L21.3117 13.265C22.1346 13.6719 23.698 13.9974 25.2614 13.9974C28.9642 14.0788 31.4328 12.2071 31.4328 9.44014ZM16.7038 0.244149L10.9439 13.8347H7.15877L4.36108 3.01108C4.19651 2.36003 4.03195 2.11589 3.53824 1.79036C2.63311 1.30208 1.23427 0.895183 0 0.651042L0.0822929 0.244149H6.17136C6.91192 0.244149 7.65248 0.732419 7.81705 1.6276L9.29818 9.52153L13.001 0.244149H16.7038Z" fill="white"/>
</svg>
