<svg width="22" height="22" viewBox="0 0 22 22" fill="none" xmlns="http://www.w3.org/2000/svg">
<path fill-rule="evenodd" clip-rule="evenodd" d="M6.77778 16.4443C6.77778 17.2999 7.47778 17.9999 8.33334 17.9999H14.5556C15.4111 17.9999 16.1111 17.2999 16.1111 16.4443V8.66656C16.1111 7.81101 15.4111 7.11101 14.5556 7.11101H8.33334C7.47778 7.11101 6.77778 7.81101 6.77778 8.66656V16.4443ZM16.1111 4.77778H14.1667L13.6144 4.22556C13.4744 4.08556 13.2722 4 13.07 4H9.81888C9.61666 4 9.41444 4.08556 9.27444 4.22556L8.72222 4.77778H6.77778C6.35 4.77778 6 5.12778 6 5.55555C6 5.98333 6.35 6.33333 6.77778 6.33333H16.1111C16.5389 6.33333 16.8889 5.98333 16.8889 5.55555C16.8889 5.12778 16.5389 4.77778 16.1111 4.77778Z" fill="#D85059"/>
</svg>
