<svg width="27" height="9" viewBox="0 0 27 9" fill="none" xmlns="http://www.w3.org/2000/svg">
<path fill-rule="evenodd" clip-rule="evenodd" d="M13.3738 0.149743L11.557 8.48516H9.38691L11.2037 0.149743H13.3738ZM22.5589 5.54031L23.7196 2.39581L24.3757 5.54031H22.5589ZM24.9813 8.48516H27L25.2336 0.149743H23.3664C22.9626 0.149743 22.6093 0.399304 22.4579 0.748693L19.1776 8.48516H21.4486L21.9028 7.23734H24.729L24.9813 8.48516ZM19.2785 5.78987C19.2785 3.59371 16.2 3.44398 16.2 2.49564C16.2 2.19616 16.5028 1.89669 17.1084 1.79686C17.4112 1.74695 18.2692 1.74694 19.2785 2.14624L19.6822 0.349393C19.1776 0.199654 18.471 0 17.6635 0C15.4935 0 13.9794 1.148 13.9794 2.7452C13.9794 3.94311 15.0392 4.59197 15.8972 4.99127C16.7551 5.39057 17.0075 5.64014 17.0075 6.03944C17.0075 6.58848 16.3514 6.83804 15.6953 6.83804C14.585 6.83804 13.9794 6.53856 13.4748 6.289L13.071 8.13577C13.5757 8.38534 14.5346 8.58498 15.4935 8.58498C17.7645 8.6349 19.2785 7.4869 19.2785 5.78987ZM10.2449 0.149743L6.71215 8.48516H4.39065L2.67476 1.84677C2.57383 1.44747 2.47289 1.29773 2.17009 1.09808C1.61495 0.798599 0.757009 0.549038 0 0.3993L0.0504723 0.149743H3.78505C4.23925 0.149743 4.69345 0.449211 4.79439 0.99825L5.70281 5.83979L7.97383 0.149743H10.2449Z" fill="#15BABE"/>
</svg>
