<svg width="27" height="6" viewBox="0 0 27 6" fill="none" xmlns="http://www.w3.org/2000/svg">
<path d="M0.310286 5.83192H1.14068C1.26465 5.83192 1.37681 5.75795 1.4257 5.64413L1.90463 4.52951H4.76186L5.24714 5.64548C5.29643 5.75882 5.40811 5.83209 5.53169 5.83209H6.39788C6.50297 5.83209 6.60091 5.77891 6.65806 5.6908C6.71529 5.60262 6.7241 5.49158 6.68132 5.39562L4.36127 0.184613C4.31151 0.072619 4.20039 0.000549316 4.07791 0.000549316H2.59017C2.46682 0.000549316 2.3553 0.0734917 2.30586 0.186438L0.0259757 5.39744C-0.0159327 5.49325 -0.00672548 5.60397 0.0506605 5.69152C0.107888 5.77906 0.205595 5.83192 0.310286 5.83192ZM3.29872 1.23097L4.188 3.26972H2.44428L3.29872 1.23097Z" fill="#15BABE"/>
<path d="M7.08982 5.83154H7.90156C8.07292 5.83154 8.21182 5.69264 8.21182 5.52127V1.50148L10.0428 5.6466C10.0924 5.75899 10.2036 5.83154 10.3265 5.83154H11.2275C11.3486 5.83154 11.4587 5.76098 11.5094 5.65097L13.3839 1.57561V5.52127C13.3839 5.69264 13.5228 5.83154 13.6941 5.83154H14.5057C14.677 5.83154 14.8159 5.69264 14.8159 5.52127V0.310265C14.8159 0.138901 14.677 0 14.5057 0H12.7333C12.6112 0 12.5003 0.0716729 12.4504 0.183032L10.7754 3.91042L9.10563 0.183588C9.05562 0.0719907 8.94482 0.000158657 8.82251 0.000158657H7.0899C6.91853 0.000158657 6.77963 0.139059 6.77963 0.310424V5.52119C6.77955 5.69264 6.91845 5.83154 7.08982 5.83154Z" fill="#15BABE"/>
<path d="M17.0003 5.83154H22.0091C22.0975 5.83154 22.1818 5.79368 22.2406 5.7278L23.8671 3.90391L25.452 5.73621C25.5108 5.80439 25.5965 5.84352 25.6867 5.84352H26.6896C26.8105 5.84352 26.9204 5.77328 26.9712 5.66351C27.0221 5.55374 27.0044 5.42452 26.9262 5.33237L24.819 2.85128L26.9145 0.53084C26.9967 0.43988 27.0176 0.308915 26.9678 0.196842C26.918 0.0847689 26.8071 0.0125412 26.6844 0.0125412H25.6982C25.6105 0.0125412 25.5273 0.0495277 25.4683 0.114375L23.9203 1.82111L22.4258 0.106358C22.3668 0.0387332 22.2816 0 22.1919 0H17.0003C16.8288 0 16.6899 0.138901 16.6899 0.310265V5.52127C16.6898 5.69264 16.8287 5.83154 17.0003 5.83154ZM18.0997 3.45538H20.9462C21.1175 3.45538 21.2564 3.31648 21.2564 3.14503V2.65856C21.2564 2.4872 21.1175 2.3483 20.9462 2.3483H18.0997V1.25566L21.5822 1.26082L22.9756 2.85144L21.4002 4.60802H18.0997V3.45538Z" fill="#15BABE"/>
</svg>
