<svg width="22" height="22" viewBox="0 0 22 22" fill="none" xmlns="http://www.w3.org/2000/svg">
<path fill-rule="evenodd" clip-rule="evenodd" d="M14.2582 13.0285H13.6098L13.38 12.8069C14.3648 11.6579 14.8737 10.0903 14.5947 8.42421C14.2089 6.1426 12.3048 4.3206 10.0068 4.04155C6.53515 3.61477 3.62158 6.53655 4.04015 10.0082C4.3192 12.3062 6.1412 14.2103 8.42281 14.5961C10.0889 14.8751 11.6565 14.3662 12.8055 13.3814L13.0271 13.6112V14.2596L16.5233 17.7476C16.8598 18.0841 17.4015 18.0841 17.738 17.7476L17.7462 17.7394C18.0827 17.4029 18.0827 16.8612 17.7462 16.5247L14.2582 13.0285ZM9.33381 13.0284C7.29021 13.0284 5.64055 11.3788 5.64055 9.33517C5.64055 7.29157 7.29021 5.64191 9.33381 5.64191C11.3774 5.64191 13.0271 7.29157 13.0271 9.33517C13.0271 11.3788 11.3774 13.0284 9.33381 13.0284ZM9.33381 7.28338C9.10401 7.28338 8.92345 7.46394 8.92345 7.69374V8.92482H7.69237C7.46256 8.92482 7.282 9.10538 7.282 9.33518C7.282 9.56499 7.46256 9.74555 7.69237 9.74555H8.92345V10.9766C8.92345 11.2064 9.10401 11.387 9.33381 11.387C9.56361 11.387 9.74417 11.2064 9.74417 10.9766V9.74555H10.9753C11.2051 9.74555 11.3856 9.56499 11.3856 9.33518C11.3856 9.10538 11.2051 8.92482 10.9753 8.92482H9.74417V7.69374C9.74417 7.46394 9.56361 7.28338 9.33381 7.28338Z" fill="#15BABE"/>
</svg>
