<svg width="177" height="109" viewBox="0 0 177 109" fill="none" xmlns="http://www.w3.org/2000/svg">
<path d="M112.43 11.6569H64.5713V97.3431H112.43V11.6569Z" fill="#E9E9E9"/>
<path d="M67.6097 54.5C67.6097 37.0903 75.814 21.6486 88.4244 11.657C79.1565 4.3903 67.4578 0 54.6955 0C24.4611 0 0 24.3736 0 54.5C0 84.6264 24.4611 109 54.6955 109C67.4578 109 79.1565 104.61 88.4244 97.3431C75.814 87.5028 67.6097 71.9097 67.6097 54.5Z" fill="#A9A9A9"/>
<path d="M177 54.5C177 84.6264 152.539 109 122.305 109C109.542 109 97.8435 104.61 88.5757 97.3431C101.338 87.3514 109.39 71.9097 109.39 54.5C109.39 37.0903 101.186 21.6486 88.5757 11.657C97.8435 4.3903 109.542 0 122.305 0C152.539 0 177 24.525 177 54.5Z" fill="white"/>
</svg>
