<svg width="22" height="22" viewBox="0 0 22 22" fill="none" xmlns="http://www.w3.org/2000/svg">
<path fill-rule="evenodd" clip-rule="evenodd" d="M14.4257 8.08454L12.1473 5.89728L6.16267 11.6425C6.10191 11.7008 6.07153 11.7708 6.07153 11.8525V13.6256C6.07153 13.7889 6.2052 13.9172 6.37532 13.9172H8.22234C8.30133 13.9172 8.38031 13.8881 8.43499 13.8298L14.4257 8.08454ZM16.224 6.35796C16.4609 6.13049 16.4609 5.76303 16.224 5.53555L14.8023 4.1707C14.5653 3.94322 14.1825 3.94322 13.9456 4.1707L12.7547 5.31391L15.0331 7.50117L16.224 6.35796Z" fill="#F1F1F2"/>
<path fill-rule="evenodd" clip-rule="evenodd" d="M5.16667 15.0001H16.8333C17.475 15.0001 18 15.6751 18 16.5001C18 17.3251 17.475 18.0001 16.8333 18.0001H5.16667C4.525 18.0001 4 17.3251 4 16.5001C4 15.6751 4.525 15.0001 5.16667 15.0001Z" fill="#8B8B9E"/>
</svg>
