<svg width="27" height="17" viewBox="0 0 27 17" fill="none" xmlns="http://www.w3.org/2000/svg">
<path d="M17.1502 1.77689H9.84976V14.8384H17.1502V1.77689Z" fill="#17A1A5"/>
<path d="M10.3134 8.30769C10.3134 5.65385 11.5649 3.3 13.4885 1.77693C12.0747 0.669234 10.2902 0 8.34338 0C3.73135 0 0 3.71538 0 8.30769C0 12.9 3.73135 16.6154 8.34338 16.6154C10.2902 16.6154 12.0747 15.9462 13.4885 14.8385C11.5649 13.3385 10.3134 10.9615 10.3134 8.30769Z" fill="#0E6164"/>
<path d="M27 8.30769C27 12.9 23.2686 16.6154 18.6566 16.6154C16.7098 16.6154 14.9253 15.9462 13.5115 14.8385C15.4583 13.3154 16.6866 10.9615 16.6866 8.30769C16.6866 5.65385 15.4351 3.3 13.5115 1.77693C14.9253 0.669234 16.7098 0 18.6566 0C23.2686 0 27 3.73846 27 8.30769Z" fill="#15BABE"/>
</svg>
