<svg width="22" height="22" viewBox="0 0 22 22" fill="none" xmlns="http://www.w3.org/2000/svg">
<path fill-rule="evenodd" clip-rule="evenodd" d="M10.16 13.73L13.429 11.28C13.618 11.14 13.618 10.86 13.429 10.72L10.16 8.27001C9.929 8.09501 9.6 8.26301 9.6 8.55001V13.45C9.6 13.737 9.929 13.905 10.16 13.73ZM11 4C7.136 4 4 7.136 4 11C4 14.864 7.136 18 11 18C14.864 18 18 14.864 18 11C18 7.136 14.864 4 11 4ZM11 16.5998C7.913 16.5998 5.4 14.0868 5.4 10.9998C5.4 7.91283 7.913 5.39983 11 5.39983C14.087 5.39983 16.6 7.91283 16.6 10.9998C16.6 14.0868 14.087 16.5998 11 16.5998Z" fill="#1AE9B5"/>
</svg>
