<svg width="13" height="13" viewBox="0 0 13 13" fill="none" xmlns="http://www.w3.org/2000/svg">
<path d="M0.271972 0.271972C0.634602 -0.0906574 1.22254 -0.0906574 1.58517 0.271972L6.5 5.1868L11.4148 0.271972C11.7775 -0.0906574 12.3654 -0.0906574 12.728 0.271972C13.0907 0.634602 13.0907 1.22254 12.728 1.58517L7.8132 6.5L12.728 11.4148C13.0907 11.7775 13.0907 12.3654 12.728 12.728C12.3654 13.0907 11.7775 13.0907 11.4148 12.728L6.5 7.8132L1.58517 12.728C1.22254 13.0907 0.634602 13.0907 0.271972 12.728C-0.0906574 12.3654 -0.0906574 11.7775 0.271972 11.4148L5.1868 6.5L0.271972 1.58517C-0.0906574 1.22254 -0.0906574 0.634602 0.271972 0.271972Z" fill="#8B8B9E"/>
</svg>
