<svg width="24" height="24" viewBox="0 0 24 24" fill="none" xmlns="http://www.w3.org/2000/svg">
<path fill-rule="evenodd" clip-rule="evenodd" d="M19.6667 5H4.66667C3.75 5 3 5.75 3 6.66667V16.6667C3 17.5833 3.75 18.3333 4.66667 18.3333H8.83333V19.1667C8.83333 19.625 9.20833 20 9.66667 20H14.6667C15.125 20 15.5 19.625 15.5 19.1667V18.3333H19.6667C20.5833 18.3333 21.3333 17.5833 21.3333 16.6667V6.66667C21.3333 5.75 20.5833 5 19.6667 5ZM18.8333 16.6667H5.5C5.04167 16.6667 4.66667 16.2917 4.66667 15.8333V7.5C4.66667 7.04167 5.04167 6.66667 5.5 6.66667H18.8333C19.2917 6.66667 19.6667 7.04167 19.6667 7.5V15.8333C19.6667 16.2917 19.2917 16.6667 18.8333 16.6667ZM17.1667 9.16667H9.66667C9.20833 9.16667 8.83333 9.54167 8.83333 10C8.83333 10.4583 9.20833 10.8333 9.66667 10.8333H17.1667C17.625 10.8333 18 10.4583 18 10C18 9.54167 17.625 9.16667 17.1667 9.16667ZM17.1667 12.5H9.66667C9.20833 12.5 8.83333 12.875 8.83333 13.3333C8.83333 13.7917 9.20833 14.1667 9.66667 14.1667H17.1667C17.625 14.1667 18 13.7917 18 13.3333C18 12.875 17.625 12.5 17.1667 12.5ZM8 9.16667H6.33333V10.8333H8V9.16667ZM8 12.5H6.33333V14.1667H8V12.5Z" fill="#8B8B9E"/>
</svg>
