<svg width="16" height="16" viewBox="0 0 16 16" fill="none" xmlns="http://www.w3.org/2000/svg">
<path fill-rule="evenodd" clip-rule="evenodd" d="M16 11.2V1.6C16 0.719999 15.28 0 14.4 0H4.80001C3.92001 0 3.20001 0.719999 3.20001 1.6V11.2C3.20001 12.08 3.92001 12.8 4.80001 12.8H14.4C15.28 12.8 16 12.08 16 11.2ZM7.52 8.42418L8.824 10.1682L10.888 7.59218C11.048 7.39218 11.352 7.39218 11.512 7.59218L13.88 10.5522C14.088 10.8162 13.904 11.2002 13.568 11.2002H5.6C5.272 11.2002 5.08 10.8242 5.28 10.5602L6.88 8.42418C7.04 8.21618 7.36 8.21618 7.52 8.42418ZM0 4.00026V14.4002C0 15.2802 0.719999 16.0002 1.6 16.0002H12C12.44 16.0002 12.8 15.6402 12.8 15.2002C12.8 14.7602 12.44 14.4002 12 14.4002H2.4C1.96 14.4002 1.6 14.0402 1.6 13.6003V4.00026C1.6 3.56026 1.24 3.20026 0.799999 3.20026C0.36 3.20026 0 3.56026 0 4.00026Z" fill="#8B8B9E"/>
</svg>
