<svg width="20" height="16" viewBox="0 0 20 16" fill="none" xmlns="http://www.w3.org/2000/svg">
<path fill-rule="evenodd" clip-rule="evenodd" d="M17.7778 0H1.77778C0.8 0 0 0.8 0 1.77778V14.2222C0 15.2 0.8 16 1.77778 16H17.7778C18.7556 16 19.5556 15.2 19.5556 14.2222V1.77778C19.5556 0.8 18.7556 0 17.7778 0ZM8.88889 8H2.66667C2.17778 8 1.77778 7.6 1.77778 7.11111V2.66667C1.77778 2.17778 2.17778 1.77778 2.66667 1.77778H8.88889C9.37778 1.77778 9.77778 2.17778 9.77778 2.66667V7.11111C9.77778 7.6 9.37778 8 8.88889 8Z" fill="#8B8B9E"/>
</svg>
