<svg width="24" height="24" xmlns="http://www.w3.org/2000/svg" fill="none">
 <g>
  <title>Layer 1</title>
  <path stroke="null" id="svg_10" d="m12,3.42418c-4.73634,0 -8.57581,3.83943 -8.57581,8.57581c0,4.7363 3.83947,8.57583 8.57581,8.57583c4.7364,0 8.57581,-3.83954 8.57581,-8.57583c0,-4.7364 -3.83943,-8.57581 -8.57581,-8.57581zm0.74053,13.22533l0,1.20794l-1.15532,0l0,-1.19432c-1.89586,-0.25964 -2.72664,-1.81736 -2.72664,-1.81736l1.18131,-0.98713c0,0 0.75293,1.31169 2.11594,1.31169c0.75287,0 1.32406,-0.403 1.32406,-1.09111c0,-1.61015 -4.3363,-1.41491 -4.3363,-4.40112c0,-1.2982 1.0255,-2.23344 2.44101,-2.45402l0,-1.20781l1.15536,0l0,1.20713c0.98656,0.12988 2.15488,0.64915 2.15488,1.76603l0,0.85678l-1.53184,0l0,-0.41539c0,-0.42834 -0.54577,-0.71399 -1.15586,-0.71399c-0.77885,0 -1.35007,0.3894 -1.35007,0.93467c0,1.64855 4.3363,1.24621 4.3363,4.37527c0.00062,1.28569 -0.96,2.40214 -2.45284,2.62272l0,0l0,0.00002l0.00001,0.00001z" fill="#8B8B9E"/>
 </g>

</svg>