<svg width="22" height="22" viewBox="0 0 22 22" fill="none" xmlns="http://www.w3.org/2000/svg">
<path fill-rule="evenodd" clip-rule="evenodd" d="M10.9999 20.1667C12.0083 20.1667 12.8333 19.3417 12.8333 18.3334H9.16659C9.16659 19.3417 9.98242 20.1667 10.9999 20.1667ZM16.4999 14.6667V10.0834C16.4999 7.26919 14.9966 4.91335 12.3749 4.29002V3.66669C12.3749 2.90585 11.7608 2.29169 10.9999 2.29169C10.2391 2.29169 9.62493 2.90585 9.62493 3.66669V4.29002C6.99409 4.91335 5.49993 7.26002 5.49993 10.0834V14.6667L4.31743 15.8492C3.73993 16.4267 4.14326 17.4167 4.95909 17.4167H17.0316C17.8474 17.4167 18.2599 16.4267 17.6824 15.8492L16.4999 14.6667Z" fill="#63637C"/>
</svg>
