<svg width="14" height="16" viewBox="0 0 14 16" fill="none" xmlns="http://www.w3.org/2000/svg">
<path fill-rule="evenodd" clip-rule="evenodd" d="M11.3333 0H2C1.63333 0 1.33333 0.3 1.33333 0.666667C1.33333 1.03333 1.63333 1.33333 2 1.33333H11.3333C11.7 1.33333 12 1.03333 12 0.666667C12 0.3 11.7 0 11.3333 0ZM2 16H11.3333C11.7 16 12 15.7 12 15.3333C12 14.9667 11.7 14.6667 11.3333 14.6667H2C1.63333 14.6667 1.33333 14.9667 1.33333 15.3333C1.33333 15.7 1.63333 16 2 16ZM12 2.66667H1.33333C0.6 2.66667 0 3.26667 0 4V12C0 12.7333 0.6 13.3333 1.33333 13.3333H12C12.7333 13.3333 13.3333 12.7333 13.3333 12V4C13.3333 3.26667 12.7333 2.66667 12 2.66667ZM6.66667 4.5C7.49333 4.5 8.16667 5.17333 8.16667 6C8.16667 6.82667 7.49333 7.5 6.66667 7.5C5.84 7.5 5.16667 6.82667 5.16667 6C5.16667 5.17333 5.84 4.5 6.66667 4.5ZM10 11.3333H3.33333V10.3333C3.33333 9.22 5.55333 8.66667 6.66667 8.66667C7.78 8.66667 10 9.22 10 10.3333V11.3333Z" fill="#8B8B9E"/>
</svg>
