<svg width="16" height="16" viewBox="0 0 16 16" fill="none" xmlns="http://www.w3.org/2000/svg">
<path fill-rule="evenodd" clip-rule="evenodd" d="M13.0327 8C13.0618 8.24 13.0909 8.48 13.0909 8.72727C13.0909 10.24 12.5091 11.6145 11.5636 12.6473C11.3745 12.0582 10.8364 11.6364 10.1818 11.6364H9.45455V9.45455C9.45455 9.05455 9.12727 8.72727 8.72727 8.72727H4.36364V7.27273H5.81818C6.21818 7.27273 6.54545 6.94545 6.54545 6.54545V5.09091H8C8.8 5.09091 9.45455 4.43636 9.45455 3.63636V1.78909C8.76364 1.57091 8.03636 1.45455 7.27273 1.45455C3.25818 1.45455 0 4.71273 0 8.72727C0 12.7418 3.25818 16 7.27273 16C11.2873 16 14.5455 12.7418 14.5455 8.72727C14.5455 8.48 14.5309 8.24 14.5091 8H13.0327ZM6.54545 14.4945C3.67273 14.1382 1.45455 11.6945 1.45455 8.72724C1.45455 8.27633 1.51273 7.84724 1.60727 7.42543L5.09091 10.9091V11.6363C5.09091 12.4363 5.74545 13.0909 6.54545 13.0909V14.4945ZM15.2727 2.18182V1.81818C15.2727 0.814545 14.4582 0 13.4545 0C12.4509 0 11.6364 0.814545 11.6364 1.81818V2.18182C11.2364 2.18182 10.9091 2.50909 10.9091 2.90909V5.81818C10.9091 6.21818 11.2364 6.54545 11.6364 6.54545H15.2727C15.6727 6.54545 16 6.21818 16 5.81818V2.90909C16 2.50909 15.6727 2.18182 15.2727 2.18182ZM14.5455 2.18182H12.3636V1.81818C12.3636 1.21455 12.8509 0.727273 13.4545 0.727273C14.0582 0.727273 14.5455 1.21455 14.5455 1.81818V2.18182Z" fill="#8B8B9E"/>
</svg>
