<svg width="22" height="22" viewBox="0 0 22 22" fill="none" xmlns="http://www.w3.org/2000/svg">
<path fill-rule="evenodd" clip-rule="evenodd" d="M17.8109 11.8983C17.8476 11.605 17.8751 11.3117 17.8751 11C17.8751 10.6883 17.8476 10.395 17.8109 10.1017L19.7451 8.58917C19.9193 8.45167 19.9651 8.20417 19.8551 8.0025L18.0218 4.83083C17.9118 4.62917 17.6643 4.55583 17.4626 4.62917L15.1801 5.54583C14.7034 5.17917 14.1901 4.87667 13.6309 4.6475L13.2826 2.21833C13.2551 1.99833 13.0626 1.83333 12.8334 1.83333H9.16676C8.9376 1.83333 8.7451 1.99833 8.7176 2.21833L8.36926 4.6475C7.8101 4.87667 7.29676 5.18833 6.8201 5.54583L4.5376 4.62917C4.32676 4.54667 4.08843 4.62917 3.97843 4.83083L2.1451 8.0025C2.02593 8.20417 2.08093 8.45167 2.2551 8.58917L4.18926 10.1017C4.1526 10.395 4.1251 10.6975 4.1251 11C4.1251 11.3025 4.1526 11.605 4.18926 11.8983L2.2551 13.4108C2.08093 13.5483 2.0351 13.7958 2.1451 13.9975L3.97843 17.1692C4.08843 17.3708 4.33593 17.4442 4.5376 17.3708L6.8201 16.4542C7.29676 16.8208 7.8101 17.1233 8.36926 17.3525L8.7176 19.7817C8.7451 20.0017 8.9376 20.1667 9.16676 20.1667H12.8334C13.0626 20.1667 13.2551 20.0017 13.2826 19.7817L13.6309 17.3525C14.1901 17.1233 14.7034 16.8117 15.1801 16.4542L17.4626 17.3708C17.6734 17.4533 17.9118 17.3708 18.0218 17.1692L19.8551 13.9975C19.9651 13.7958 19.9193 13.5483 19.7451 13.4108L17.8109 11.8983ZM11.0001 14.2083C9.23092 14.2083 7.79175 12.7692 7.79175 11C7.79175 9.23083 9.23092 7.79167 11.0001 7.79167C12.7692 7.79167 14.2084 9.23083 14.2084 11C14.2084 12.7692 12.7692 14.2083 11.0001 14.2083Z" fill="#63637C"/>
</svg>
